<?xml version="1.0" encoding="UTF-8" standalone="no"?>
<svg
   height="20"
   viewBox="0 96 960 960"
   width="20"
   version="1.1"
   id="svg1940"
   sodipodi:docname="visibility_off.svg"
   inkscape:version="1.2.1 (9c6d41e410, 2022-07-14)"
   xmlns:inkscape="http://www.inkscape.org/namespaces/inkscape"
   xmlns:sodipodi="http://sodipodi.sourceforge.net/DTD/sodipodi-0.dtd"
   xmlns="http://www.w3.org/2000/svg"
   xmlns:svg="http://www.w3.org/2000/svg">
  <defs
     id="defs1944" />
  <sodipodi:namedview
     id="namedview1942"
     pagecolor="#505050"
     bordercolor="#eeeeee"
     borderopacity="1"
     inkscape:showpageshadow="0"
     inkscape:pageopacity="0"
     inkscape:pagecheckerboard="0"
     inkscape:deskcolor="#505050"
     showgrid="false"
     inkscape:zoom="11.8"
     inkscape:cx="5"
     inkscape:cy="10.042373"
     inkscape:window-width="1366"
     inkscape:window-height="705"
     inkscape:window-x="-8"
     inkscape:window-y="-8"
     inkscape:window-maximized="1"
     inkscape:current-layer="svg1940" />
  <path
     d="M643 614 538 509q-3-2-3.5.5t4.5-.5l-97-97q10-2 20.5-3t17.5-1q70 0 119 49t49 119q0 5-1 17.5t-4 20.5Zm159 161-72-74q29-26 54-56t47-69q-51-100-144.5-158T480 360q-26 0-45.5 2t-36.5 6l-84-84q38-15 81.5-21t84.5-6q149 0 276 82.5T943 576q-22 59-60.5 109.5T802 775Zm-46 203L644 865q-36 15-77.5 22.5T480 895q-150 0-277-83.5T17 576q21-55 58-105.5t83-92.5l-96-94 62-62 693 695-61 61ZM232 450q-33 30-57.5 57.5T130 576q49 101 143 158.5T480 792q17 0 37.5-2t45.5-8l-45-45q-9 4-19 5.5t-19 1.5q-70 0-119-49t-49-119q0-8 2-18.5t3-19.5l-85-88Zm311 70ZM418 631Z"
     id="path1938"
     style="fill:#f76969;fill-opacity:1" />
</svg>
